# xmcd CD database file
#
# Track frame offsets:
#	151
#	20794
#	42764
#	68367
#	73644
#	89971
#	103064
#	121566
#	143306
#	168281
#	187257
#	209099
#	226119
#	246538
#
# Disc length: 3616 seconds
#
# Revision: 0
# Processed by: cddbd v1.5.1PL0 Copyright (c) Steve Scherf et al.
# Submitted via: CDex 1.50beta10
#
DISCID=c60e1e0e
DTITLE=Nina Simone - Lovin' Woman
DYEAR=1900
DGENRE=Jazz
TTITLE0=My Baby Just Cares For Me
TTITLE1=Pirate Jenny
TTITLE2=For A While
TTITLE3=You Took My Teeth
TTITLE4=Sugar In My Bowl
TTITLE5=Backlash Blues
TTITLE6=Do What You Gotta Do
TTITLE7=Mississippi Goodman
TTITLE8=See Lime Woman
TTITLE9=The Other Woman
TTITLE10=Four Woman
TTITLE11=I Sing Just To Know That I'm Alive
TTITLE12=You Must Have Another Lover
TTITLE13=Touching and Caring
EXTD=
EXTT0=
EXTT1=
EXTT2=
EXTT3=
EXTT4=
EXTT5=
EXTT6=
EXTT7=
EXTT8=
EXTT9=
EXTT10=
EXTT11=
EXTT12=
EXTT13=
PLAYORDER=
